<svg width="31" height="32" viewBox="0 0 31 32" fill="none" xmlns="http://www.w3.org/2000/svg">
<path d="M24.5837 19.2642L23.3125 17.1541C23.0456 16.6838 22.8041 15.794 22.8041 15.2728V12.0568C22.8041 9.06968 21.0499 6.48927 18.5203 5.28169C17.8594 4.11224 16.6391 3.3877 15.2408 3.3877C13.8553 3.3877 12.6096 4.13767 11.9486 5.31982C9.46985 6.55283 7.75382 9.10781 7.75382 12.0568V15.2728C7.75382 15.794 7.5123 16.6838 7.24536 17.1414L5.96151 19.2642C5.45306 20.1159 5.33866 21.0565 5.65644 21.9209C5.96151 22.7725 6.68606 23.4335 7.6267 23.7513C10.0927 24.5903 12.6858 24.997 15.2789 24.997C17.8721 24.997 20.4652 24.5903 22.9312 23.764C23.821 23.4717 24.5074 22.798 24.8379 21.9209C25.1684 21.0438 25.0794 20.0777 24.5837 19.2642Z" fill="#548404"/>
<path d="M18.8509 26.2809C18.317 27.7554 16.906 28.8105 15.2536 28.8105C14.2494 28.8105 13.2579 28.4037 12.5587 27.6792C12.152 27.2978 11.8469 26.7894 11.6689 26.2682C11.8342 26.2936 11.9994 26.3063 12.1774 26.3317C12.4698 26.3699 12.7748 26.408 13.0799 26.4334C13.8045 26.497 14.5417 26.5351 15.279 26.5351C16.0035 26.5351 16.7281 26.497 17.4399 26.4334C17.7068 26.408 17.9738 26.3953 18.228 26.3572C18.4314 26.3317 18.6348 26.3063 18.8509 26.2809Z" fill="#548404"/>
</svg>
