<svg width="25" height="25" viewBox="0 0 25 25" fill="none" xmlns="http://www.w3.org/2000/svg">
<path d="M3.69803 15.9643L4.3944 15.7429L3.69803 15.9643ZM2.63937 9.95481L3.34326 10.151L2.63937 9.95481ZM7.06008 5.3893L6.62446 4.80263H6.62446L7.06008 5.3893ZM2.74737 9.61512L3.43531 9.86146L2.74737 9.61512ZM6.58054 21.672L6.16688 22.2743H6.16688L6.58054 21.672ZM6.2978 21.462L5.84085 22.0322L6.2978 21.462ZM21.302 15.9643L20.6056 15.7429L21.302 15.9643ZM18.7022 21.462L19.1592 22.0322L18.7022 21.462ZM18.4195 21.672L18.8331 22.2743L18.4195 21.672ZM17.9399 5.3893L18.3755 4.80263L17.9399 5.3893ZM22.2526 9.61512L21.5647 9.86146L22.2526 9.61512ZM22.3606 9.95481L21.6567 10.151L22.3606 9.95481ZM12.6747 2.50327L12.6474 3.23348L12.6747 2.50327ZM12.3253 2.50327L12.3526 3.23348L12.3253 2.50327ZM10.5934 17.1822C10.1898 17.1822 9.86266 17.5093 9.86266 17.9129C9.86266 18.3164 10.1898 18.6436 10.5934 18.6436V17.1822ZM14.4066 18.6436C14.8102 18.6436 15.1373 18.3164 15.1373 17.9129C15.1373 17.5093 14.8102 17.1822 14.4066 17.1822V18.6436ZM4.3944 15.7429C3.90415 14.2009 3.55461 13.0983 3.37116 12.2029C3.19105 11.3239 3.18681 10.7123 3.34326 10.151L1.93548 9.75863C1.69397 10.6252 1.73352 11.4911 1.93947 12.4963C2.14207 13.4851 2.52083 14.6733 3.00166 16.1857L4.3944 15.7429ZM6.62446 4.80263C5.36607 5.73703 4.37495 6.47171 3.64116 7.15108C2.89432 7.84252 2.36286 8.52142 2.05943 9.36878L3.43531 9.86146C3.63113 9.3146 3.98487 8.82446 4.634 8.22347C5.29618 7.61042 6.21179 6.92931 7.4957 5.97597L6.62446 4.80263ZM3.34326 10.151C3.37047 10.0533 3.40118 9.95677 3.43531 9.86146L2.05943 9.36878C2.01346 9.49716 1.97212 9.6272 1.93548 9.75863L3.34326 10.151ZM12.5 21.7693C10.9125 21.7693 9.78126 21.7683 8.89429 21.6702C8.02525 21.5741 7.46201 21.3909 6.9942 21.0696L6.16688 22.2743C6.90483 22.7811 7.73009 23.0118 8.73372 23.1228C9.71943 23.2317 10.945 23.2307 12.5 23.2307V21.7693ZM3.00166 16.1857C3.48245 17.698 3.85945 18.8869 4.26435 19.8089C4.67577 20.7456 5.14295 21.473 5.84085 22.0322L6.75475 20.8918C6.30948 20.535 5.96232 20.0407 5.60241 19.2212C5.23599 18.3869 4.88468 17.285 4.3944 15.7429L3.00166 16.1857ZM6.9942 21.0696C6.91231 21.0134 6.83244 20.9541 6.75475 20.8918L5.84085 22.0322C5.94656 22.1169 6.05531 22.1977 6.16688 22.2743L6.9942 21.0696ZM20.6056 15.7429C20.1153 17.285 19.764 18.3869 19.3976 19.2212C19.0377 20.0407 18.6905 20.535 18.2452 20.8918L19.1592 22.0322C19.857 21.473 20.3242 20.7456 20.7357 19.8089C21.1406 18.8869 21.5175 17.698 21.9983 16.1857L20.6056 15.7429ZM12.5 23.2307C14.055 23.2307 15.2806 23.2317 16.2663 23.1228C17.2699 23.0118 18.0952 22.7811 18.8331 22.2743L18.0058 21.0696C17.538 21.3909 16.9748 21.5741 16.1057 21.6702C15.2187 21.7683 14.0875 21.7693 12.5 21.7693V23.2307ZM18.2452 20.8918C18.1676 20.9541 18.0877 21.0134 18.0058 21.0696L18.8331 22.2743C18.9447 22.1977 19.0534 22.1169 19.1592 22.0322L18.2452 20.8918ZM17.5043 5.97597C18.7882 6.92931 19.7038 7.61042 20.366 8.22347C21.0151 8.82446 21.3689 9.3146 21.5647 9.86146L22.9406 9.36878C22.6371 8.52142 22.1057 7.84252 21.3588 7.15108C20.625 6.47171 19.6339 5.73703 18.3755 4.80263L17.5043 5.97597ZM21.9983 16.1857C22.4792 14.6733 22.8579 13.4851 23.0605 12.4963C23.2665 11.4911 23.306 10.6252 23.0645 9.75863L21.6567 10.151C21.8132 10.7123 21.8089 11.3239 21.6288 12.2029C21.4454 13.0983 21.0959 14.2009 20.6056 15.7429L21.9983 16.1857ZM21.5647 9.86146C21.5988 9.95676 21.6295 10.0533 21.6567 10.151L23.0645 9.75863C23.0279 9.6272 22.9865 9.49716 22.9406 9.36878L21.5647 9.86146ZM18.3755 4.80263C17.1173 3.86835 16.1271 3.13187 15.2678 2.62834C14.3937 2.1162 13.5932 1.80648 12.7021 1.77307L12.6474 3.23348C13.208 3.2545 13.7689 3.44392 14.5289 3.88926C15.3037 4.3432 16.2202 5.02252 17.5043 5.97597L18.3755 4.80263ZM7.4957 5.97597C8.77976 5.02252 9.69633 4.3432 10.4711 3.88926C11.2311 3.44392 11.792 3.2545 12.3526 3.23348L12.2979 1.77307C11.4068 1.80648 10.6063 2.1162 9.73223 2.62834C8.87287 3.13187 7.88271 3.86835 6.62446 4.80263L7.4957 5.97597ZM12.7021 1.77307C12.5674 1.76802 12.4326 1.76802 12.2979 1.77307L12.3526 3.23348C12.4508 3.22979 12.5492 3.22979 12.6474 3.23348L12.7021 1.77307ZM10.5934 18.6436H14.4066V17.1822H10.5934V18.6436Z" fill="#C4C4C4"/>
</svg>
